<svg class="icon" viewBox="0 0 1024 1024" xmlns="http://www.w3.org/2000/svg" width="128" height="128"><path d="M600.24 905.742c-135.007 100.73-275.721 20.25-275.721 20.25s147.469 126.695 473.63 73.963c43.816-7.085 88.025-26.052 147.382-126.926 19.658-33.398 31.11-65.755 36.314-95.546-208.975-5.44-381.605 128.259-381.605 128.259" fill="#6DBBFF"/><path d="M913.647 621.709c-97.92-10.381-198.65-3.116-601.584 146.428 0 0-77.632 38.682-113.977-20.506 0 0 71.394-74.91-4.412-157.077 0 0-60.235 42.059-33.753 126.694 0 0-69.581-30.114-126.695 36.352 0 0 58.671 60.752 140.198 14.537 0 0 87.233 113.715 151.101 157.856 0 0 140.715 80.48 275.721-20.251 0 0 172.63-133.692 381.611-128.259h.038c-.007 0 29.665-145.387-68.248-155.774zM693.929 822.272a31.342 31.342 0 110-62.697 31.342 31.342 0 110 62.697z" fill="#3088FE"/><path d="M680.713 790.924a13.216 13.216 0 1026.432 0 13.216 13.216 0 10-26.432 0z"/><path d="M655.335 645.174c-1.664-10.704-13.11-20.076 1.046-28.058 14.163-7.988 29.704 10.225 15.646 14.07-14.05 3.838-16.692 13.988-16.692 13.988zm-105.423-87.196s-25.64-19.466-66.846-2.044c-41.193 17.428-38.295-55.998 11.01-63.643 49.319-7.646 39.493 36.7 55.836 65.687zm64.454 77.769s-14.275-10.842-37.212-1.14c-22.942 9.701-21.335-31.174 6.12-35.436 27.46-4.256 21.988 20.431 31.092 36.576zm20.307-74.735c-3.452-22.2-27.167-41.61 2.168-58.153 29.36-16.544 61.556 21.191 32.42 29.154-29.13 7.964-34.588 29-34.588 29z" fill="#3088FE"/><path d="M120.815 29.004c-13.184 15.87-31.877 48.695-20.724 75.183 11.153 26.488 3.078 67.65-2.96 82.287-6.038 14.643-26.45 69.04 9.521 94.58 35.972 25.547 59.35-7.54 78.554-23.304 19.21-15.764 50.334-30.968 63.027-25.809 12.705 5.153 16.013 25.884 15.858 37.96-.156 12.075-7.907 52.396 6.119 70.746 14.02 18.344 44.04 19.802 74.827 2.736s18.394-48.789 4.144-74.492c-14.244-25.703-39.504-46.776-45.305-55.724-5.814-8.947 33.529-16.169 57.767-22.25 24.251-6.088 49.655-37.293 27.454-61.282-22.195-23.99-48.484-7.216-55.936.997-7.458 8.206-27.478 37.124-52.764 22.425s-16.88-56.939-43.2-50.533c-26.325 6.405-22.655 32.563-14.511 57.263s-9.135 41.566-19.31 47.212c-10.188 5.645-30.625 12.543-44.228-11.995-13.608-24.538.991-49.424 22.35-83.445 21.355-34.015 41.43-82.748 8.544-103.728S134 13.141 120.815 29.004zm497.539 315.257c2.374-16.263 12.592-32.289 3.919-55.312-8.667-23.024-40.589-35.934-60.241-32.507-19.665 3.42-24.12 1.084-41.013 10.985-16.88 9.9-25.777 22.363-31.97 45.56s-2.157 47.22 0 56.404 2.48 30.438 19.832 41.243c17.354 10.81 54.54 19.964 81.265 12.536 26.725-7.433 32.812-36.239 32.127-47.953-.667-11.714-6.293-14.687-3.92-30.956zm-39.686 10.53c-.062 3.814-2.274 10.88-7.738 13.017s-14.519 0-18.488 0-10.979-7.527-13.446-14.636c-2.468-7.104.903-15.97 2.467-19.896 1.583-3.932 4.262-14.967 10.98-17.465 6.716-2.493 12.243-5.004 18.487-4.05 6.256.946 11.733 2.666 12.935 12.524s-4.505 11.596-5.259 16.86.125 9.833.062 13.647zm267.304-238.989c-15.49 1.981-42.813 10.512-50.322 30.943-7.496 20.438-33.236 39.068-44.14 44.053s-50.322 24.581-43.592 57.313c6.742 32.731 36.775 26.482 55.568 27.672 18.78 1.19 43.872 8.841 48.24 18.263 4.38 9.42-4.505 22.612-10.817 29.217-6.33 6.61-31.448 24.949-33.161 42.352-1.714 17.41 14.175 33.722 40.04 40.171 25.871 6.45 35.392-17.522 40.782-39.118 5.377-21.603 2.274-46.328 3.689-54.278 1.402-7.957 26.918 8.368 43.492 17.521s46.77 4.991 46.863-19.77c.1-24.756-23.135-29.043-31.497-28.345-8.375.697-34.402 6.368-40.82-14.83-6.411-21.204 20.07-40.265 2.181-50.31-17.889-10.05-29.379 6.338-37.629 24.227-8.237 17.889-26.531 18.313-35.086 16.182-8.555-2.137-23.441-8.873-18.307-29.492 5.147-20.618 26.095-26.868 55.493-34.681s65.694-24.438 58.316-53.05c-7.384-28.607-33.79-26.021-49.293-24.04z" fill="#6DBBFF"/></svg>