<svg class="icon" viewBox="0 0 1102 1024" xmlns="http://www.w3.org/2000/svg" width="21.523" height="20"><defs><style/></defs><path d="M1091.378 874.89L612.62 38.912C598.519 14.257 576.149 0 551.415 0c-24.733 0-47.104 14.178-61.203 38.912L11.373 874.89c-14.178 24.655-15.123 51.2-2.678 72.704 12.367 21.583 35.683 33.87 63.961 33.87h957.44c28.2 0 51.594-12.287 63.96-33.87 12.525-21.504 11.58-48.05-2.678-72.704zm-128.393 18.904H139.767a22.37 22.37 0 01-19.22-33.555L532.197 141.39a22.213 22.213 0 0138.597 0l411.569 718.848a22.37 22.37 0 01-19.22 33.555z"/><path d="M507.305 771.938a44.11 44.11 0 1088.221 0 44.11 44.11 0 00-88.221 0z"/><path d="M507.305 771.938a44.11 44.11 0 1088.221 0 44.11 44.11 0 00-88.221 0zm44.11-452.135a44.11 44.11 0 00-44.11 44.11v220.555a44.11 44.11 0 0088.221 0V363.914a44.11 44.11 0 00-44.11-44.11z" fill="#d81e06"/></svg>